<?xml version="1.0" standalone="no"?><!DOCTYPE svg PUBLIC "-//W3C//DTD SVG 1.1//EN" "http://www.w3.org/Graphics/SVG/1.1/DTD/svg11.dtd"><svg t="1727082277689" class="icon" viewBox="0 0 1024 1024" version="1.1" xmlns="http://www.w3.org/2000/svg" p-id="3212" xmlns:xlink="http://www.w3.org/1999/xlink" width="200" height="200"><path d="M954.88 448A448 448 0 0 0 576 69.12V0H448v69.12A448 448 0 0 0 69.12 448H0v128h69.12A448 448 0 0 0 448 954.88V1024h128v-69.12A448 448 0 0 0 954.88 576H1024V448h-69.12z m-128 128A320 320 0 0 1 576 825.6V704H448v121.6A320 320 0 0 1 198.4 576H320V448H198.4A320 320 0 0 1 448 198.4V320h128V198.4A320 320 0 0 1 825.6 448H704v128h122.88z" fill="#000000" p-id="3213"></path></svg>