<?xml version="1.0" standalone="no"?><!DOCTYPE svg PUBLIC "-//W3C//DTD SVG 1.1//EN" "http://www.w3.org/Graphics/SVG/1.1/DTD/svg11.dtd"><svg t="1727082293859" class="icon" viewBox="0 0 1024 1024" version="1.1" xmlns="http://www.w3.org/2000/svg" p-id="3522" xmlns:xlink="http://www.w3.org/1999/xlink" width="200" height="200"><path d="M512 192a192 192 0 1 1 0 384 192 192 0 0 1 0-384z m0 256a64 64 0 1 0 0-128 64 64 0 0 0 0 128z m0-448c268.16 0 448 154.24 448 384 0 270.08-330.88 640-448 640S64 654.08 64 384c0-229.76 179.84-384 448-384z m0 896c76.8-46.08 320-308.48 320-512 0-192-165.12-256-320-256S192 195.2 192 384c0 203.52 243.2 465.92 320 512z" fill="#000000" p-id="3523"></path></svg>